<mxfile modified="2024-01-31T02:39:17.481Z" host="Electron" agent="5.0 (Windows NT 10.0; Win64; x64) AppleWebKit/537.36 (KHTML, like Gecko) draw.io/20.8.16 Chrome/106.0.5249.199 Electron/21.4.0 Safari/537.36" etag="jBYBdiUsDiK9Ag_i3mae" compressed="false" version="20.8.16" type="device">
  <diagram id="7jLlEumUiMLtJq0d6O2o" name="View">
    <mxGraphModel dx="875" dy="532" grid="1" gridSize="10" guides="1" tooltips="1" connect="1" arrows="1" fold="1" page="1" pageScale="1" pageWidth="827" pageHeight="1169" math="0" shadow="0">
      <root>
        <mxCell id="R8PEM5ubBwQ5RRjLXsm--0" />
        <mxCell id="R8PEM5ubBwQ5RRjLXsm--1" parent="R8PEM5ubBwQ5RRjLXsm--0" />
        <mxCell id="Bb3ik_aOIdPs3Mw46473-32" value="Business&lt;br&gt;Requirements&lt;br&gt;&lt;font style=&quot;font-size: 8px;&quot;&gt;&lt;i&gt;(Why &amp;amp; Value)&lt;/i&gt;&lt;/font&gt;" style="rounded=0;whiteSpace=wrap;html=1;" vertex="1" parent="R8PEM5ubBwQ5RRjLXsm--1">
          <mxGeometry x="38" y="290" width="80" height="40" as="geometry" />
        </mxCell>
        <mxCell id="Bb3ik_aOIdPs3Mw46473-33" value="aligned to" style="edgeStyle=orthogonalEdgeStyle;rounded=0;orthogonalLoop=1;jettySize=auto;html=1;entryX=1;entryY=0.5;entryDx=0;entryDy=0;horizontal=0;" edge="1" parent="R8PEM5ubBwQ5RRjLXsm--1" source="Bb3ik_aOIdPs3Mw46473-34" target="Bb3ik_aOIdPs3Mw46473-32">
          <mxGeometry relative="1" as="geometry" />
        </mxCell>
        <mxCell id="Bb3ik_aOIdPs3Mw46473-34" value="Stakeholders&lt;br&gt;Requirements&lt;br&gt;&lt;font style=&quot;font-size: 8px;&quot;&gt;&lt;i&gt;(and System Users)&lt;/i&gt;&lt;/font&gt;" style="rounded=0;whiteSpace=wrap;html=1;" vertex="1" parent="R8PEM5ubBwQ5RRjLXsm--1">
          <mxGeometry x="158" y="290" width="80" height="40" as="geometry" />
        </mxCell>
        <mxCell id="Bb3ik_aOIdPs3Mw46473-35" value="Solution" style="rounded=1;whiteSpace=wrap;html=1;arcSize=8;absoluteArcSize=1;container=1;collapsible=0;recursiveResize=0;dashed=1;align=left;verticalAlign=top;" vertex="1" parent="R8PEM5ubBwQ5RRjLXsm--1">
          <mxGeometry x="288" y="240" width="480" height="140" as="geometry" />
        </mxCell>
        <mxCell id="Bb3ik_aOIdPs3Mw46473-36" value="System" style="rounded=1;whiteSpace=wrap;html=1;arcSize=8;absoluteArcSize=1;container=1;collapsible=0;recursiveResize=0;dashed=1;align=left;verticalAlign=top;" vertex="1" parent="Bb3ik_aOIdPs3Mw46473-35">
          <mxGeometry x="9" y="20" width="361" height="110" as="geometry" />
        </mxCell>
        <mxCell id="Bb3ik_aOIdPs3Mw46473-37" value="Functional&lt;br&gt;Requirements" style="rounded=0;whiteSpace=wrap;html=1;" vertex="1" parent="Bb3ik_aOIdPs3Mw46473-36">
          <mxGeometry x="9" y="20" width="80" height="40" as="geometry" />
        </mxCell>
        <mxCell id="Bb3ik_aOIdPs3Mw46473-38" value="Non-Functional Requirements" style="rounded=0;whiteSpace=wrap;html=1;align=left;verticalAlign=top;" vertex="1" parent="Bb3ik_aOIdPs3Mw46473-36">
          <mxGeometry x="130" y="20" width="220" height="80" as="geometry" />
        </mxCell>
        <mxCell id="Bb3ik_aOIdPs3Mw46473-40" value="Qualitative&lt;br&gt;&lt;font style=&quot;font-size: 8px;&quot;&gt;(targets)&lt;/font&gt;" style="rounded=0;whiteSpace=wrap;html=1;dashed=1;" vertex="1" parent="Bb3ik_aOIdPs3Mw46473-36">
          <mxGeometry x="140.5" y="50" width="80" height="40" as="geometry" />
        </mxCell>
        <mxCell id="Bb3ik_aOIdPs3Mw46473-39" value="Quantitative&lt;br&gt;&lt;i&gt;&lt;font style=&quot;font-size: 8px;&quot;&gt;(constraints)&lt;/font&gt;&lt;/i&gt;" style="rounded=0;whiteSpace=wrap;html=1;dashed=1;" vertex="1" parent="Bb3ik_aOIdPs3Mw46473-36">
          <mxGeometry x="263" y="50" width="80" height="40" as="geometry" />
        </mxCell>
        <mxCell id="Bb3ik_aOIdPs3Mw46473-43" value="referencing" style="edgeStyle=orthogonalEdgeStyle;rounded=0;orthogonalLoop=1;jettySize=auto;html=1;entryX=1;entryY=0.5;entryDx=0;entryDy=0;fontSize=8;horizontal=0;" edge="1" parent="Bb3ik_aOIdPs3Mw46473-36" source="Bb3ik_aOIdPs3Mw46473-39" target="Bb3ik_aOIdPs3Mw46473-40">
          <mxGeometry relative="1" as="geometry" />
        </mxCell>
        <mxCell id="Bb3ik_aOIdPs3Mw46473-41" value="Transitional&lt;br&gt;Requirements&lt;br&gt;&lt;font size=&quot;1&quot; style=&quot;&quot;&gt;&lt;i style=&quot;font-size: 8px;&quot;&gt;(Delivery &amp;amp; Change)&lt;/i&gt;&lt;/font&gt;" style="rounded=0;whiteSpace=wrap;html=1;" vertex="1" parent="R8PEM5ubBwQ5RRjLXsm--1">
          <mxGeometry x="678" y="280" width="80" height="40" as="geometry" />
        </mxCell>
        <mxCell id="Bb3ik_aOIdPs3Mw46473-42" value="supporting" style="edgeStyle=orthogonalEdgeStyle;rounded=0;orthogonalLoop=1;jettySize=auto;html=1;horizontal=0;exitX=0;exitY=0.5;exitDx=0;exitDy=0;" edge="1" parent="R8PEM5ubBwQ5RRjLXsm--1" source="Bb3ik_aOIdPs3Mw46473-35" target="Bb3ik_aOIdPs3Mw46473-34">
          <mxGeometry relative="1" as="geometry" />
        </mxCell>
      </root>
    </mxGraphModel>
  </diagram>
</mxfile>
